<svg width="489" height="127" viewBox="0 0 489 127" fill="none" xmlns="http://www.w3.org/2000/svg">
<path d="M17.5142 58.2358V87H5.9446V21.5455H17.2585V46.2507H17.8338C18.9844 43.4808 20.7635 41.2969 23.1712 39.6989C25.6001 38.0795 28.6896 37.2699 32.4396 37.2699C35.8487 37.2699 38.821 37.9837 41.3565 39.4112C43.892 40.8388 45.8523 42.9268 47.2372 45.6754C48.6435 48.424 49.3466 51.7798 49.3466 55.7429V87H37.777V57.5327C37.777 54.2301 36.9247 51.6626 35.2202 49.8303C33.5369 47.9766 31.1719 47.0497 28.125 47.0497C26.0795 47.0497 24.2472 47.4972 22.6278 48.392C21.0298 49.2656 19.7727 50.5334 18.8565 52.1953C17.9616 53.8572 17.5142 55.8707 17.5142 58.2358ZM82.5533 87.9588C77.7592 87.9588 73.6044 86.9041 70.0888 84.7947C66.5732 82.6854 63.8459 79.7344 61.907 75.9418C59.9893 72.1491 59.0305 67.7173 59.0305 62.6463C59.0305 57.5753 59.9893 53.1328 61.907 49.3189C63.8459 45.505 66.5732 42.5433 70.0888 40.4339C73.6044 38.3246 77.7592 37.2699 82.5533 37.2699C87.3473 37.2699 91.5021 38.3246 95.0178 40.4339C98.5334 42.5433 101.25 45.505 103.168 49.3189C105.107 53.1328 106.076 57.5753 106.076 62.6463C106.076 67.7173 105.107 72.1491 103.168 75.9418C101.25 79.7344 98.5334 82.6854 95.0178 84.7947C91.5021 86.9041 87.3473 87.9588 82.5533 87.9588ZM82.6172 78.6903C85.2166 78.6903 87.3899 77.9766 89.1371 76.549C90.8842 75.1001 92.1839 73.1612 93.0362 70.7322C93.9098 68.3033 94.3466 65.5973 94.3466 62.6143C94.3466 59.6101 93.9098 56.8935 93.0362 54.4645C92.1839 52.0142 90.8842 50.0646 89.1371 48.6158C87.3899 47.1669 85.2166 46.4425 82.6172 46.4425C79.9538 46.4425 77.7379 47.1669 75.9695 48.6158C74.2223 50.0646 72.9119 52.0142 72.0384 54.4645C71.1861 56.8935 70.7599 59.6101 70.7599 62.6143C70.7599 65.5973 71.1861 68.3033 72.0384 70.7322C72.9119 73.1612 74.2223 75.1001 75.9695 76.549C77.7379 77.9766 79.9538 78.6903 82.6172 78.6903ZM127.465 21.5455V87H115.896V21.5455H127.465ZM153.489 87.9908C150.378 87.9908 147.576 87.4368 145.083 86.3288C142.612 85.1996 140.652 83.5376 139.203 81.343C137.775 79.1484 137.061 76.4425 137.061 73.2251C137.061 70.4553 137.573 68.1648 138.596 66.3537C139.618 64.5426 141.014 63.0938 142.782 62.0071C144.551 60.9205 146.543 60.1001 148.759 59.5462C150.996 58.9709 153.308 58.5554 155.694 58.2997C158.571 58.0014 160.904 57.7351 162.694 57.5007C164.483 57.245 165.783 56.8615 166.593 56.3501C167.424 55.8175 167.839 54.9972 167.839 53.8892V53.6974C167.839 51.2898 167.125 49.4254 165.698 48.1044C164.27 46.7834 162.214 46.1229 159.529 46.1229C156.696 46.1229 154.448 46.7408 152.786 47.9766C151.145 49.2124 150.037 50.6719 149.462 52.3551L138.659 50.821C139.512 47.8381 140.918 45.3452 142.878 43.3423C144.838 41.3182 147.235 39.8054 150.069 38.804C152.903 37.7812 156.035 37.2699 159.466 37.2699C161.831 37.2699 164.185 37.5469 166.529 38.1009C168.873 38.6548 171.014 39.571 172.953 40.8494C174.892 42.1065 176.447 43.8217 177.619 45.995C178.812 48.1683 179.409 50.8849 179.409 54.1449V87H168.287V80.2564H167.903C167.2 81.62 166.209 82.8984 164.931 84.0916C163.674 85.2635 162.086 86.2116 160.169 86.9361C158.272 87.6392 156.046 87.9908 153.489 87.9908ZM156.493 79.4893C158.816 79.4893 160.829 79.0312 162.534 78.1151C164.238 77.1776 165.549 75.9418 166.465 74.4077C167.402 72.8736 167.871 71.201 167.871 69.3899V63.6051C167.509 63.9034 166.891 64.1804 166.017 64.4361C165.165 64.6918 164.206 64.9155 163.141 65.1072C162.076 65.299 161.021 65.4695 159.977 65.6186C158.933 65.7678 158.027 65.8956 157.26 66.0021C155.534 66.2365 153.99 66.62 152.626 67.1527C151.262 67.6854 150.186 68.4311 149.398 69.3899C148.61 70.3274 148.216 71.5419 148.216 73.0334C148.216 75.1641 148.993 76.7727 150.549 77.8594C152.104 78.946 154.086 79.4893 156.493 79.4893ZM213.734 87H191.554V21.5455H214.181C220.68 21.5455 226.262 22.8558 230.929 25.4766C235.616 28.076 239.217 31.8153 241.731 36.6946C244.245 41.5739 245.502 47.4119 245.502 54.2088C245.502 61.027 244.235 66.8864 241.699 71.7869C239.185 76.6875 235.552 80.4482 230.801 83.0689C226.071 85.6896 220.382 87 213.734 87ZM203.411 76.7408H213.159C217.718 76.7408 221.522 75.9098 224.569 74.2479C227.615 72.5646 229.906 70.0611 231.44 66.7372C232.974 63.392 233.741 59.2159 233.741 54.2088C233.741 49.2017 232.974 45.0469 231.44 41.7443C229.906 38.4205 227.637 35.9382 224.632 34.2976C221.65 32.6357 217.942 31.8047 213.51 31.8047H203.411V76.7408ZM256.257 87V37.9091H267.827V87H256.257ZM262.074 30.9418C260.241 30.9418 258.665 30.3345 257.344 29.12C256.023 27.8842 255.362 26.4034 255.362 24.6776C255.362 22.9304 256.023 21.4496 257.344 20.2351C258.665 18.9993 260.241 18.3814 262.074 18.3814C263.928 18.3814 265.504 18.9993 266.804 20.2351C268.125 21.4496 268.786 22.9304 268.786 24.6776C268.786 26.4034 268.125 27.8842 266.804 29.12C265.504 30.3345 263.928 30.9418 262.074 30.9418ZM301.073 106.432C296.919 106.432 293.35 105.867 290.367 104.738C287.384 103.63 284.987 102.138 283.176 100.263C281.365 98.3885 280.107 96.3111 279.404 94.0312L289.823 91.5064C290.292 92.4652 290.974 93.4134 291.869 94.3509C292.764 95.3097 293.968 96.098 295.48 96.7159C297.014 97.3551 298.943 97.6747 301.265 97.6747C304.546 97.6747 307.263 96.8757 309.415 95.2777C311.567 93.701 312.643 91.1016 312.643 87.4794V78.179H312.068C311.471 79.3722 310.597 80.5973 309.447 81.8544C308.318 83.1115 306.816 84.1662 304.941 85.0185C303.087 85.8707 300.754 86.2969 297.941 86.2969C294.17 86.2969 290.75 85.4126 287.682 83.6442C284.635 81.8544 282.206 79.1911 280.395 75.6541C278.605 72.0959 277.71 67.6428 277.71 62.2947C277.71 56.9041 278.605 52.3551 280.395 48.6477C282.206 44.919 284.646 42.0959 287.714 40.1783C290.782 38.2393 294.202 37.2699 297.973 37.2699C300.85 37.2699 303.215 37.7599 305.068 38.7401C306.943 39.6989 308.435 40.8601 309.543 42.2237C310.651 43.566 311.492 44.8338 312.068 46.027H312.707V37.9091H324.117V87.799C324.117 91.9964 323.115 95.4695 321.112 98.218C319.11 100.967 316.372 103.023 312.899 104.386C309.426 105.75 305.484 106.432 301.073 106.432ZM301.169 77.2202C303.619 77.2202 305.708 76.6236 307.433 75.4304C309.159 74.2372 310.47 72.522 311.365 70.2848C312.259 68.0476 312.707 65.3629 312.707 62.2308C312.707 59.1413 312.259 56.4354 311.365 54.1129C310.491 51.7905 309.191 49.9901 307.465 48.7116C305.761 47.4119 303.662 46.7621 301.169 46.7621C298.591 46.7621 296.439 47.4332 294.713 48.7756C292.987 50.1179 291.688 51.9609 290.814 54.3047C289.941 56.6271 289.504 59.2692 289.504 62.2308C289.504 65.2351 289.941 67.8665 290.814 70.125C291.709 72.3622 293.019 74.1094 294.745 75.3665C296.492 76.6023 298.634 77.2202 301.169 77.2202ZM335.974 87V37.9091H347.544V87H335.974ZM341.791 30.9418C339.958 30.9418 338.382 30.3345 337.061 29.12C335.74 27.8842 335.079 26.4034 335.079 24.6776C335.079 22.9304 335.74 21.4496 337.061 20.2351C338.382 18.9993 339.958 18.3814 341.791 18.3814C343.644 18.3814 345.221 18.9993 346.521 20.2351C347.842 21.4496 348.502 22.9304 348.502 24.6776C348.502 26.4034 347.842 27.8842 346.521 29.12C345.221 30.3345 343.644 30.9418 341.791 30.9418ZM383.954 37.9091V46.858H355.733V37.9091H383.954ZM362.701 26.1477H374.27V72.2344C374.27 73.7898 374.505 74.983 374.973 75.8139C375.463 76.6236 376.103 77.1776 376.891 77.4759C377.679 77.7741 378.553 77.9233 379.512 77.9233C380.236 77.9233 380.897 77.87 381.493 77.7635C382.111 77.657 382.58 77.5611 382.9 77.4759L384.849 86.5206C384.231 86.7337 383.347 86.968 382.196 87.2237C381.067 87.4794 379.682 87.6286 378.042 87.6712C375.144 87.7564 372.534 87.3196 370.211 86.3608C367.889 85.3807 366.046 83.8679 364.682 81.8224C363.34 79.777 362.679 77.2202 362.701 74.152V26.1477ZM407.757 87.9908C404.646 87.9908 401.844 87.4368 399.351 86.3288C396.879 85.1996 394.919 83.5376 393.47 81.343C392.043 79.1484 391.329 76.4425 391.329 73.2251C391.329 70.4553 391.84 68.1648 392.863 66.3537C393.886 64.5426 395.281 63.0938 397.05 62.0071C398.818 60.9205 400.811 60.1001 403.026 59.5462C405.264 58.9709 407.575 58.5554 409.962 58.2997C412.838 58.0014 415.171 57.7351 416.961 57.5007C418.751 57.245 420.051 56.8615 420.86 56.3501C421.691 55.8175 422.107 54.9972 422.107 53.8892V53.6974C422.107 51.2898 421.393 49.4254 419.965 48.1044C418.538 46.7834 416.482 46.1229 413.797 46.1229C410.963 46.1229 408.715 46.7408 407.053 47.9766C405.413 49.2124 404.305 50.6719 403.73 52.3551L392.927 50.821C393.779 47.8381 395.186 45.3452 397.146 43.3423C399.106 41.3182 401.503 39.8054 404.337 38.804C407.171 37.7812 410.303 37.2699 413.733 37.2699C416.098 37.2699 418.453 37.5469 420.796 38.1009C423.14 38.6548 425.281 39.571 427.22 40.8494C429.159 42.1065 430.715 43.8217 431.887 45.995C433.08 48.1683 433.676 50.8849 433.676 54.1449V87H422.554V80.2564H422.171C421.468 81.62 420.477 82.8984 419.198 84.0916C417.941 85.2635 416.354 86.2116 414.436 86.9361C412.54 87.6392 410.313 87.9908 407.757 87.9908ZM410.761 79.4893C413.083 79.4893 415.097 79.0312 416.801 78.1151C418.506 77.1776 419.816 75.9418 420.732 74.4077C421.67 72.8736 422.139 71.201 422.139 69.3899V63.6051C421.776 63.9034 421.159 64.1804 420.285 64.4361C419.433 64.6918 418.474 64.9155 417.409 65.1072C416.343 65.299 415.289 65.4695 414.244 65.6186C413.2 65.7678 412.295 65.8956 411.528 66.0021C409.802 66.2365 408.257 66.62 406.894 67.1527C405.53 67.6854 404.454 68.4311 403.666 69.3899C402.877 70.3274 402.483 71.5419 402.483 73.0334C402.483 75.1641 403.261 76.7727 404.816 77.8594C406.372 78.946 408.353 79.4893 410.761 79.4893ZM456.879 21.5455V87H445.31V21.5455H456.879Z" fill="#F6E9C9"/>
<path d="M479 87C484.523 87 489 82.5228 489 77C489 71.4772 484.523 67 479 67C473.477 67 469 71.4772 469 77C469 82.5228 473.477 87 479 87Z" fill="#0056FF"/>
<path d="M13.0137 111.295C159.846 104.088 278.687 108.533 451.879 122.83" stroke="#0056FF" stroke-width="8" stroke-linecap="round"/>
<path d="M37.606 117.126C176.074 107.357 288.309 109.727 451.999 121" stroke="#0056FF" stroke-width="8" stroke-linecap="round"/>
</svg>
