<svg width="620" height="420" viewBox="0 0 620 420" fill="none" xmlns="http://www.w3.org/2000/svg">
<rect width="620" height="420" rx="34" fill="#101a2b"/>
<rect x="38" y="42" width="544" height="336" rx="28" fill="#0b1220" stroke="#20304f"/>
<rect x="72" y="86" width="152" height="110" rx="22" fill="#12203a"/>
<rect x="92" y="108" width="86" height="12" rx="6" fill="#F4E8CC"/>
<rect x="92" y="132" width="112" height="10" rx="5" fill="#C8BEAA"/>
<rect x="92" y="154" width="96" height="10" rx="5" fill="#C8BEAA" fill-opacity="0.7"/>
<rect x="244" y="86" width="304" height="110" rx="22" fill="#101c33"/>
<path d="M274 160H518" stroke="#0B63CE" stroke-width="8" stroke-linecap="round"/>
<path d="M274 132H466" stroke="#16B9D4" stroke-width="8" stroke-linecap="round" opacity="0.7"/>
<rect x="72" y="220" width="476" height="116" rx="24" fill="#101c33"/>
<circle cx="118" cy="278" r="26" fill="#0B63CE" fill-opacity="0.16"/>
<circle cx="204" cy="278" r="26" fill="#0B63CE" fill-opacity="0.24"/>
<circle cx="290" cy="278" r="26" fill="#0B63CE" fill-opacity="0.32"/>
<circle cx="376" cy="278" r="26" fill="#0B63CE" fill-opacity="0.4"/>
<circle cx="462" cy="278" r="26" fill="#0B63CE" fill-opacity="0.5"/>
</svg>
